PathFileType	4	(X/Y/Z)	C:/Users/opensim2020/Desktop/walking_exp_matlab/subject02_walking14_straight_01.trc	
DataRate	CameraRate	NumFrames	NumMarkers	Units	OrigDataRate	OrigDataStartFrame	OrigNumFrames	
100.00	100.00	6	41	mm	100.00	341	131	
Frame#	Time	LFHD			RFHD			LBHD			RBHD			C7			T10			CLAV			STRN			RBAK			LSHO			LUPA			LELB			LFRM			LWRA			LWRB			LFIN			RSHO			RUPA			RELB			RFRM			RWRA			RWRB			RFIN			LASI			RASI			LPSI			RPSI			LTHI			LKNE			LTIB			LANK			LHEE			LTOE			RTHI			RKNE			RTIB			RANK			RHEE			RTOE			*39			*40			
		X1	Y1	Z1	X2	Y2	Z2	X3	Y3	Z3	X4	Y4	Z4	X5	Y5	Z5	X6	Y6	Z6	X7	Y7	Z7	X8	Y8	Z8	X9	Y9	Z9	X10	Y10	Z10	X11	Y11	Z11	X12	Y12	Z12	X13	Y13	Z13	X14	Y14	Z14	X15	Y15	Z15	X16	Y16	Z16	X17	Y17	Z17	X18	Y18	Z18	X19	Y19	Z19	X20	Y20	Z20	X21	Y21	Z21	X22	Y22	Z22	X23	Y23	Z23	X24	Y24	Z24	X25	Y25	Z25	X26	Y26	Z26	X27	Y27	Z27	X28	Y28	Z28	X29	Y29	Z29	X30	Y30	Z30	X31	Y31	Z31	X32	Y32	Z32	X33	Y33	Z33	X34	Y34	Z34	X35	Y35	Z35	X36	Y36	Z36	X37	Y37	Z37	X38	Y38	Z38	X39	Y39	Z39	X40	Y40	Z40	X41	Y41	Z41	

1	0.000	1340.61780	-831.20953	1717.78210	1483.24109	-851.16101	1704.64331	1317.33191	-966.16705	1657.20691	1456.69946	-999.41425	1643.31860	1377.19360	-1041.98840	1522.33020	1377.53333	-1118.40955	1252.63196	1387.23853	-910.89191	1443.68591	1399.37732	-874.06799	1267.93518	1428.61768	-1126.14319	1352.93457	1210.41431	-946.99878	1492.10693	1125.41748	-934.86737	1291.92334	1114.79272	-914.17194	1150.13147	1120.98401	-865.68445	1025.79272	1185.28027	-790.39697	928.07007	1138.03882	-818.71863	913.85107	1145.94250	-776.78784	866.13519	1571.00635	-1003.82831	1482.76526	1647.92749	-1087.46924	1311.96106	1680.08679	-1105.89319	1168.71960	1709.03821	-1094.75537	1049.35168	1699.44885	-1058.59033	917.26575	1724.58032	-1108.15186	919.47552	1734.33960	-1078.60913	854.15222	1260.66809	-923.68756	968.88354	1513.39319	-925.29791	969.60956	1334.49829	-1125.51331	1034.03833	1449.26477	-1133.37146	1037.24292	1233.75256	-1020.45789	654.78320	1280.03491	-1077.91797	461.47202	1289.04504	-1156.35071	282.23053	1342.97644	-1181.50647	63.50975	1392.66699	-1224.59387	37.83342	1343.17334	-1027.33569	28.34238	1613.86646	-943.01367	686.23285	1597.28003	-884.85162	484.80643	1610.66077	-913.01868	298.78403	1589.57190	-908.81201	103.63026	1531.43884	-925.44666	42.87766	1629.48132	-758.67633	61.89540	1415.57471	-934.77637	1796.69482	-3357.37109	2846.06641	1034.38794 
2	0.010	1342.89844	-820.76343	1716.28064	1485.41992	-840.58075	1702.63416	1319.56213	-955.64380	1655.34521	1458.94226	-988.70441	1641.10339	1379.62695	-1031.35461	1520.14319	1380.73840	-1107.42627	1250.38574	1389.05518	-900.07654	1441.77747	1400.74243	-862.97858	1265.96240	1431.39063	-1114.92322	1350.61377	1212.59656	-937.21692	1490.60535	1127.77283	-921.62793	1291.30823	1116.04883	-897.78888	1150.00305	1122.64172	-844.85248	1027.34192	1186.70508	-765.65076	932.80847	1139.93604	-794.04828	917.28687	1147.28088	-750.10248	871.46265	1573.22205	-992.18652	1480.57617	1650.37073	-1076.56445	1310.64136	1682.00220	-1096.67065	1167.42236	1711.00439	-1087.18420	1047.96887	1701.46509	-1052.89624	915.47961	1726.65027	-1102.26062	918.32544	1735.90515	-1074.03723	852.31665	1261.22510	-913.71265	967.19891	1515.12805	-912.61249	967.41486	1338.80579	-1115.08020	1031.77771	1453.07690	-1121.51648	1034.42334	1235.56360	-1013.53522	654.06818	1281.42957	-1073.42871	461.06857	1290.22046	-1154.11792	282.90991	1343.52136	-1181.21216	63.89384	1393.34912	-1223.99365	38.01379	1343.33179	-1026.91675	27.96413	1616.01843	-929.99182	683.75714	1598.60168	-870.14313	482.79559	1615.40381	-887.29889	295.89359	1597.21924	-871.86115	100.85838	1540.34607	-886.57745	38.48338	1633.34021	-718.42834	67.93700	1417.99048	-924.46991	1794.81311	-3355.38647	2846.71460	1034.36011 
3	0.020	1345.24683	-810.28540	1714.48145	1487.62024	-829.95154	1700.59241	1321.81323	-945.22766	1653.22668	1461.32715	-978.07446	1638.96765	1382.22473	-1020.61810	1517.93713	1384.01868	-1096.32751	1247.96375	1390.92590	-889.19202	1439.71216	1401.77771	-852.24298	1263.73621	1434.21521	-1103.62244	1347.99597	1214.86243	-927.35974	1488.96472	1129.53467	-908.77069	1290.46436	1117.60132	-881.21576	1149.82336	1124.20898	-824.45959	1028.94775	1187.93152	-741.09552	937.91650	1141.70190	-770.02454	920.88214	1148.18445	-724.34509	876.91083	1575.57593	-980.54193	1478.46423	1652.56042	-1065.65747	1308.96387	1684.11316	-1087.38477	1166.08777	1713.05078	-1079.33826	1046.53821	1703.35486	-1046.81787	913.47565	1728.93018	-1096.08777	917.04590	1737.60339	-1069.05139	850.44177	1262.65955	-903.26990	965.65540	1517.17859	-899.51617	965.23932	1343.06445	-1104.45996	1029.23621	1456.85303	-1109.49011	1031.46240	1237.21509	-1006.64624	653.10938	1282.80029	-1068.71667	460.62781	1291.40576	-1151.70349	283.50931	1344.05115	-1180.89514	64.32557	1394.05286	-1224.30188	39.34471	1343.22314	-1026.72876	27.82569	1618.15564	-917.49512	681.00531	1599.69080	-855.91840	480.70804	1619.95276	-862.48718	293.76587	1604.43518	-835.79364	99.31999	1548.87012	-848.64240	35.66897	1636.84827	-679.46948	75.17117	1420.45496	-914.09491	1792.55493	-3357.14160	2846.20825	1034.48291 
4	0.030	1347.17358	-800.01550	1712.40332	1489.85718	-819.20935	1698.47083	1324.22961	-934.69556	1651.06812	1463.68530	-967.19135	1636.44592	1384.81885	-1009.87463	1515.47253	1387.35266	-1085.14319	1245.43616	1392.92346	-878.16687	1437.54346	1403.63855	-840.39471	1261.72339	1437.07983	-1092.16187	1345.26758	1217.28003	-917.34454	1487.13245	1131.57166	-896.13123	1289.69104	1118.79382	-865.63104	1149.63684	1125.79834	-804.59131	1030.73572	1188.63562	-717.62714	942.90326	1143.38879	-746.64471	924.69946	1149.06775	-699.37402	882.49951	1577.92859	-968.88586	1476.07446	1655.01453	-1054.84216	1307.30261	1686.19885	-1077.69946	1164.30579	1715.20972	-1071.31250	1045.00488	1705.42529	-1040.42981	911.51843	1731.14087	-1089.66309	915.82782	1739.49365	-1063.78076	848.58252	1264.00085	-892.92578	963.75317	1519.06006	-886.43903	962.81488	1347.28723	-1093.62720	1026.58337	1460.60767	-1097.25769	1028.41028	1239.09534	-999.08881	651.65509	1284.26843	-1063.76331	460.03091	1292.69019	-1148.99719	284.02747	1344.73877	-1180.61365	64.94128	1394.82202	-1223.44470	39.46511	1343.12305	-1026.53906	27.68026	1620.15283	-905.51129	677.92017	1600.83777	-842.09937	478.47864	1623.87891	-838.25800	292.17319	1611.17700	-800.84662	98.93010	1556.66614	-811.33447	33.90723	1639.98315	-642.38794	82.99239	1422.92603	-903.65881	1790.38770			 
5	0.040	1349.46631	-789.47137	1710.45349	1492.14636	-808.47504	1696.24646	1326.62744	-924.10046	1648.86292	1466.16602	-956.32349	1633.94861	1387.49963	-999.15491	1512.86340	1390.75110	-1073.76636	1242.75305	1395.06934	-867.04816	1435.25745	1405.07910	-829.12665	1259.46777	1440.07214	-1080.60803	1342.43921	1219.79138	-907.22668	1485.15710	1133.79590	-883.14392	1288.86536	1120.05933	-849.93280	1149.47522	1127.34631	-785.03918	1032.45728	1190.06445	-693.80188	948.59204	1145.26819	-723.62677	928.47992	1149.88330	-674.63049	888.02515	1580.41785	-957.12067	1473.53247	1657.39124	-1043.91431	1305.37390	1688.58655	-1068.34473	1163.11877	1717.33508	-1062.95874	1043.40967	1707.60583	-1033.76746	909.41113	1733.44922	-1082.87732	914.41663	1741.46545	-1058.12402	846.62274	1265.40161	-882.28381	961.52075	1521.18164	-873.07910	960.28973	1351.53760	-1082.54480	1023.73877	1464.41846	-1084.90552	1025.31799	1240.82324	-992.00842	650.66010	1285.75037	-1058.52344	459.40298	1294.05164	-1146.03296	284.58865	1345.67493	-1180.29553	65.57945	1395.86499	-1223.62817	41.09624	1343.02222	-1026.37695	27.50092	1622.26672	-894.09882	674.68402	1601.92566	-828.51666	476.22427	1627.60718	-815.00488	291.15115	1617.21167	-767.31317	99.57338	1564.03674	-776.00262	34.00307	1643.06482	-607.13635	91.24017	1425.46960	-893.25153	1788.17468	-3356.92041	2846.19531	1034.38770 
6	0.050	1352.00305	-778.89282	1708.55872	1494.46570	-797.58795	1693.92017	1329.13464	-913.52704	1646.49133	1468.74011	-945.39539	1631.42212	1390.32275	-988.17670	1510.19800	1394.16895	-1062.26013	1239.98376	1397.22339	-855.89612	1432.88428	1406.86035	-817.43445	1257.18469	1443.13953	-1068.94434	1339.53198	1222.45593	-897.03424	1483.05310	1135.87732	-870.10101	1287.81262	1121.44104	-834.48444	1149.16077	1128.79224	-765.91992	1034.04968	1190.34290	-671.52045	953.42023	1147.20410	-700.89594	932.06000	1150.64734	-651.09808	893.89288	1583.06921	-945.31329	1470.92725	1659.86963	-1032.77637	1303.37207	1691.07898	-1058.50110	1161.39856	1719.75964	-1054.37976	1041.64038	1709.91833	-1026.73035	907.24548	1735.78333	-1075.77161	912.89154	1743.63293	-1052.02136	844.69489	1267.05127	-871.30804	959.25861	1523.12830	-859.80609	957.71326	1355.59558	-1071.20398	1020.82739	1468.19250	-1072.25830	1022.15601	1242.49390	-984.75800	649.50031	1287.29980	-1052.94360	458.78424	1295.59021	-1142.99829	285.26099	1346.54663	-1179.94470	66.47514	1396.81860	-1222.93335	42.06379	1342.97644	-1026.28186	27.40904	1624.17993	-882.74298	671.26978	1603.16333	-814.83258	473.98120	1631.05261	-792.61438	290.58612	1622.38989	-735.71655	100.91309	1569.61682	-742.07379	34.27244	1645.63562	-574.38391	98.86277	1428.06409	-882.62732	1785.76099	-3356.86987	2846.01904	1034.14795 
